<?xml version="1.0" standalone="no"?>
<!DOCTYPE svg PUBLIC "-//W3C//DTD SVG 20010904//EN"
 "http://www.w3.org/TR/2001/REC-SVG-20010904/DTD/svg10.dtd">
<svg version="1.0" xmlns="http://www.w3.org/2000/svg"
 width="300.000000pt" height="300.000000pt" viewBox="0 0 300.000000 300.000000"
 preserveAspectRatio="xMidYMid meet">
<metadata>
Created by potrace 1.10, written by Peter Selinger 2001-2011
</metadata>
<g transform="translate(0.000000,300.000000) scale(0.100000,-0.100000)"
fill="#e61e1e" stroke="none">
<path d="M962 2590 c-228 -32 -452 -143 -615 -304 -96 -95 -156 -180 -216
-307 -161 -338 -141 -705 58 -1043 60 -104 210 -261 315 -331 259 -172 568
-223 871 -145 178 46 399 180 525 318 76 83 160 206 160 236 0 18 -47 44 -335
185 -184 90 -335 167 -335 170 0 3 87 51 193 105 261 134 549 287 564 298 16
13 -7 87 -63 207 -144 307 -420 525 -757 597 -87 19 -279 26 -365 14z m275
-141 c109 -14 258 -67 354 -125 155 -94 296 -249 371 -409 16 -36 28 -69 24
-72 -3 -3 -187 -99 -408 -213 -428 -220 -440 -228 -418 -284 8 -21 72 -57 360
-201 192 -96 350 -180 350 -185 0 -23 -189 -199 -260 -242 -86 -54 -198 -100
-296 -125 -106 -26 -314 -23 -428 5 -325 81 -579 320 -679 637 -124 395 29
829 376 1064 106 72 276 136 412 154 61 8 166 7 242 -4z"/>
<path d="M1395 2036 c-60 -27 -119 -90 -146 -154 -22 -52 -49 -154 -49 -190 0
-27 42 -72 67 -72 21 0 493 264 505 283 4 6 8 27 8 45 0 26 -6 36 -32 52 -99
61 -264 78 -353 36z m110 -129 c-53 -35 -115 -67 -115 -58 0 21 71 71 103 71
29 0 30 -1 12 -13z"/>
<path d="M2645 1794 c-38 -14 -109 -38 -157 -53 -92 -30 -161 -66 -192 -100
-16 -18 -17 -23 -5 -37 16 -20 89 -15 207 15 42 11 118 24 169 30 50 5 105 17
122 26 53 27 54 103 1 130 -40 21 -63 19 -145 -11z"/>
<path d="M2740 1505 c-47 -7 -108 -17 -137 -23 -28 -6 -80 -9 -116 -5 -102 9
-192 -4 -227 -34 -41 -34 -40 -73 2 -108 33 -28 33 -28 138 -20 58 5 195 7
306 5 l201 -2 32 29 c39 34 45 85 17 127 -31 48 -66 53 -216 31z"/>
<path d="M2325 1133 c-44 -7 -67 -30 -54 -55 19 -35 107 -65 250 -87 75 -11
165 -30 200 -41 91 -28 132 -26 158 6 32 41 27 81 -14 120 -42 39 -47 40 -271
54 -173 10 -214 11 -269 3z"/>
</g>
</svg>
